<?xml version="1.0" encoding="utf-8"?>
<svg viewBox="0 0 171 36" fill="none" xmlns="http://www.w3.org/2000/svg">
  <defs>
    <linearGradient id="paint0_linear_120_1360" x1="15" y1="3" x2="15" y2="33" gradientUnits="userSpaceOnUse">
      <stop stop-color="#877EFF"/>
      <stop offset="0.4615" stop-color="#685DFF"/>
      <stop offset="1" stop-color="#3121FF"/>
    </linearGradient>
  </defs>
  <g transform="matrix(1, 0, 0, 1, -233.05178833007812, -162.4745941162109)">
    <g transform="matrix(0.170663, 0, 0, 0.174883, 363.449371, 159.199738)" style="">
      <g transform="matrix(5.3163, 0, 0, 5.3163, -635.307068, 122.107544)" id="531797">
        <linearGradient id="SVGID_7" gradientUnits="userSpaceOnUse" gradientTransform="matrix(1 0 0 1 0 0)" x1="15" y1="3" x2="15" y2="33">
          <stop offset="0" style="stop-color:rgb(135,126,255);stop-opacity: 1"/>
          <stop offset="0.4615" style="stop-color:rgb(104,93,255);stop-opacity: 1"/>
          <stop offset="1" style="stop-color:rgb(49,33,255);stop-opacity: 1"/>
        </linearGradient>
        <path style="stroke: none; stroke-width: 0; stroke-dasharray: none; stroke-linecap: butt; stroke-dashoffset: 0; stroke-linejoin: miter; stroke-miterlimit: 4; is-custom-font: none; font-file-url: none; fill: url(#SVGID_7); fill-rule: evenodd; opacity: 1;" transform=" translate(-15, -18)" d="M 27.8333 18 C 27.8333 25.0877 22.0877 30.8333 15 30.8333 C 7.91234 30.8333 2.16666 25.0877 2.16666 18 C 2.16666 10.9123 7.91234 5.16666 15 5.16666 C 22.0877 5.16666 27.8333 10.9123 27.8333 18 Z M 30 18 C 30 26.2843 23.2843 33 15 33 C 6.71573 33 0 26.2843 0 18 C 0 9.71573 6.71573 3 15 3 C 23.2843 3 30 9.71573 30 18 Z M 23.2759 11.2759 C 23.2759 12.1329 22.5812 12.8276 21.7242 12.8276 C 20.8672 12.8276 20.1725 12.1329 20.1725 11.2759 C 20.1725 10.4189 20.8672 9.72418 21.7242 9.72418 C 22.5812 9.72418 23.2759 10.4189 23.2759 11.2759 Z M 10.4879 19.209 C 11.1556 21.7009 13.717 23.1797 16.2089 22.512 C 18.7008 21.8443 20.1796 19.2829 19.5119 16.791 C 18.8442 14.2991 16.2828 12.8203 13.7909 13.488 C 11.299 14.1557 9.82015 16.7171 10.4879 19.209 Z M 8.39503 19.7698 C 9.37244 23.4175 13.1219 25.5823 16.7696 24.6049 C 20.4174 23.6274 22.5821 19.878 21.6047 16.2302 C 20.6273 12.5825 16.8779 10.4177 13.2301 11.3952 C 9.58236 12.3726 7.41762 16.122 8.39503 19.7698 Z" stroke-linecap="round"/>
      </g>
      <g transform="matrix(1, 0, 0, 1, -192.309921, 124.266052)" style="" id="100452">
        <path font-family="Chakra Petch" font-size="139" font-style="normal" font-weight="bold" style="stroke: none; stroke-width: 0; stroke-dasharray: none; stroke-linecap: butt; stroke-dashoffset: 0; stroke-linejoin: miter; stroke-miterlimit: 4; is-custom-font: none; font-file-url: none; fill: rgb(255,255,255); fill-opacity: 0.99; fill-rule: nonzero; opacity: 1; white-space: pre;" d="M-336.31 43.67L-336.31-53.63L-317.41-53.63L-317.41 43.67L-336.31 43.67ZM-299.34 43.67L-299.34-25.56L-282.38-25.56L-282.38-14.02L-270.84-25.56L-248.46-25.56L-233.03-10.13L-233.03 43.67L-251.38 43.67L-251.38-5.12L-256.11-9.99L-267.78-9.99L-280.99 3.36L-280.99 43.67L-299.34 43.67ZM-207.04 43.67L-220.52 30.04L-220.52 21.56L-202.45 21.56L-202.45 25.46L-199.40 28.65L-176.88 28.65L-173.82 25.46L-173.82 19.48L-177.02 16.14L-206.90 16.14L-219.97 2.94L-219.97-12.21L-206.76-25.56L-170.62-25.56L-157.14-11.93L-157.14-3.46L-175.21-3.46L-175.21-7.35L-178.27-10.54L-198.84-10.54L-201.90-7.35L-201.90-1.93L-198.70 1.41L-168.82 1.41L-155.75 14.61L-155.75 30.32L-168.95 43.67L-207.04 43.67ZM-121.97 43.67L-136.29 29.49L-136.29-10.13L-148.80-10.13L-148.80-25.56L-136.01-25.56L-136.01-48.07L-117.94-48.07L-117.94-25.56L-96.81-25.56L-96.81-9.99L-117.94-9.99L-117.94 23.51L-113.22 28.10L-96.81 28.10L-96.81 43.67L-121.97 43.67ZM-74.30 43.67L-87.08 30.88L-87.08 15.03L-74.30 2.24L-39.13 2.24L-39.13-6.51L-43.44-10.82L-64.29-10.82L-68.46-6.51L-68.46-2.62L-86.53-2.62L-86.53-10.54L-71.65-25.56L-35.93-25.56L-21.06-10.54L-21.06 43.67L-37.60 43.67L-37.60 33.80L-47.89 43.67L-74.30 43.67ZM-65.54 29.49L-49.14 29.49L-39.13 19.90L-39.13 15.31L-65.26 15.31L-69.01 19.06L-69.01 26.01L-65.54 29.49ZM11.75 43.67L-14.80-25.56L4.24-25.56L20.36 22.68L20.92 22.68L37.04-25.56L56.09-25.56L29.54 43.67L11.75 43.67ZM75.69 43.67L61.65 29.49L61.65-11.10L75.96-25.56L115.02-25.56L129.48-11.10L129.48 15.17L79.99 15.17L79.99 24.07L84.44 28.65L107.10 28.65L111.27 24.34L111.27 20.73L129.34 20.73L129.34 29.77L115.58 43.67L75.69 43.67ZM79.99 2.38L111.13 2.38L111.13-5.68L106.40-10.54L84.72-10.54L79.99-5.68L79.99 2.38ZM144.07 43.67L144.07-25.56L161.03-25.56L161.03-14.02L172.15-25.56L191.89-25.56L191.89-9.99L175.90-9.99L162.42 3.91L162.42 43.67L144.07 43.67ZM208.85 43.67L195.36 30.04L195.36 21.56L213.43 21.56L213.43 25.46L216.49 28.65L239.01 28.65L242.07 25.46L242.07 19.48L238.87 16.14L208.99 16.14L195.92 2.94L195.92-12.21L209.13-25.56L245.27-25.56L258.75-11.93L258.75-3.46L240.68-3.46L240.68-7.35L237.62-10.54L217.05-10.54L213.99-7.35L213.99-1.93L217.19 1.41L247.07 1.41L260.14 14.61L260.14 30.32L246.93 43.67L208.85 43.67ZM285.99 43.67L271.95 29.49L271.95-11.10L286.27-25.56L325.33-25.56L339.79-11.10L339.79 15.17L290.30 15.17L290.30 24.07L294.75 28.65L317.41 28.65L321.58 24.34L321.58 20.73L339.65 20.73L339.65 29.77L325.89 43.67L285.99 43.67ZM290.30 2.38L321.44 2.38L321.44-5.68L316.71-10.54L295.03-10.54L290.30-5.68L290.30 2.38Z"/>
      </g>
    </g>
  </g>
</svg>